<svg xmlns="http://www.w3.org/2000/svg" viewBox="0 0 64 64">
  <rect width="64" height="64" rx="16" fill="#0f9d58" />
  <rect x="10" y="16" width="44" height="32" rx="8" fill="#dff7e8" />
  <circle cx="32" cy="32" r="10" fill="#0f9d58" />
  <path
    d="M34.9 25.4c-0.9-0.4-1.9-0.6-3-0.6c-2.9 0-5 1.8-5 4.2c0 2.2 1.7 3.5 4.2 4.1l0.7 0.2c1.6 0.4 2.4 0.8 2.4 1.8c0 1.1-1 1.8-2.5 1.8c-1.3 0-2.7-0.5-3.8-1.4l-1.6 2.1c1.3 1.1 3 1.7 4.7 1.9v2.1h2v-2.2c2.8-0.4 4.7-2.2 4.7-4.6c0-2.4-1.6-3.5-4.5-4.3l-0.8-0.2c-1.4-0.3-2.1-0.7-2.1-1.6c0-1 0.9-1.6 2.2-1.6c1.2 0 2.2 0.3 3.2 0.9z"
    fill="#dff7e8"
  />
</svg>
